<svg width="242" height="187" viewBox="0 0 242 187" fill="none" xmlns="http://www.w3.org/2000/svg">
<circle cx="17" cy="17" r="17" fill="#E9E6E6" fill-opacity="0.5"/>
<circle cx="17" cy="119" r="17" fill="#E9E6E6" fill-opacity="0.5"/>
<circle cx="17" cy="68" r="17" fill="#E9E6E6" fill-opacity="0.5"/>
<circle cx="17" cy="170" r="17" fill="#E9E6E6" fill-opacity="0.5"/>
<circle cx="68" cy="17" r="17" fill="#E9E6E6" fill-opacity="0.5"/>
<circle cx="68" cy="119" r="17" fill="#E9E6E6" fill-opacity="0.5"/>
<circle cx="68" cy="68" r="17" fill="#E9E6E6" fill-opacity="0.5"/>
<circle cx="68" cy="170" r="17" fill="#E9E6E6" fill-opacity="0.5"/>
<circle cx="119" cy="17" r="17" fill="#E9E6E6" fill-opacity="0.5"/>
<circle cx="119" cy="119" r="17" fill="#E9E6E6" fill-opacity="0.5"/>
<circle cx="119" cy="68" r="17" fill="#E9E6E6" fill-opacity="0.5"/>
<circle cx="119" cy="170" r="17" fill="#E9E6E6" fill-opacity="0.5"/>
<circle cx="170" cy="17" r="17" fill="#E9E6E6" fill-opacity="0.5"/>
<circle cx="170" cy="119" r="17" fill="#E9E6E6" fill-opacity="0.5"/>
<circle cx="170" cy="68" r="17" fill="#E9E6E6" fill-opacity="0.5"/>
<circle cx="170" cy="170" r="17" fill="#E9E6E6" fill-opacity="0.5"/>
<circle cx="221" cy="17" r="17" fill="#E9E6E6" fill-opacity="0.5"/>
<circle cx="221" cy="119" r="17" fill="#E9E6E6" fill-opacity="0.5"/>
<circle cx="221" cy="68" r="17" fill="#E9E6E6" fill-opacity="0.5"/>
<circle cx="221" cy="170" r="17" fill="#E9E6E6" fill-opacity="0.5"/>
</svg>
