<svg width="705" height="475" viewBox="0 0 705 475" fill="none" xmlns="http://www.w3.org/2000/svg">
<path fill-rule="evenodd" clip-rule="evenodd" d="M383.238 1.57744C440.469 1.71491 499.531 -6.78257 549.928 14.3153C604.329 37.0896 643.394 76.7347 668.037 120.804C694.623 168.348 719.101 223.333 693.593 271.233C668.507 318.342 590.417 328.075 540.206 360.854C484.231 397.396 456.147 470.014 383.238 473.843C310.834 477.646 201.119 470.114 142.348 437C83.4519 403.816 73.1042 329.743 38.8892 279.825C1.8084 225.726 -16.1036 155.464 20.0779 100.998C55.4874 47.6937 143.041 33.431 215.798 13.5127C269.993 -1.32396 325.785 1.43943 383.238 1.57744Z" fill="url(#paint0_linear)"/>
<defs>
<linearGradient id="paint0_linear" x1="704.163" y1="225.28" x2="124.384" y2="126.887" gradientUnits="userSpaceOnUse">
<stop offset="0.163896" stop-color="#FFA022"/>
<stop offset="0.878157" stop-color="#FFCB87"/>
</linearGradient>
</defs>
</svg>
