<svg width="145" height="530" viewBox="0 0 145 530" fill="none" xmlns="http://www.w3.org/2000/svg">
<path fill-rule="evenodd" clip-rule="evenodd" d="M333.397 1.76331C383.23 1.91698 434.658 -7.58179 478.54 16.0021C525.91 41.4601 559.925 85.7768 581.383 135.039C604.533 188.186 625.847 249.649 603.636 303.194C581.792 355.854 513.796 366.733 470.076 403.375C421.336 444.223 396.882 525.398 333.397 529.678C270.353 533.929 233.792 459.774 182.617 422.758C131.335 385.664 63.3519 368.598 33.5596 312.798C1.27192 252.324 -14.3248 173.783 17.1799 112.899C48.0123 53.3137 124.249 37.3703 187.601 15.1049C234.791 -1.47997 283.371 1.60905 333.397 1.76331Z" fill="url(#paint0_linear)" fill-opacity="0.5"/>
<defs>
<linearGradient id="paint0_linear" x1="612.839" y1="251.826" x2="102.384" y2="184.347" gradientUnits="userSpaceOnUse">
<stop offset="0.163896" stop-color="#FFA022"/>
<stop offset="0.878157" stop-color="#FFCB87"/>
</linearGradient>
</defs>
</svg>
