<svg width="409" height="187" viewBox="0 0 409 187" fill="none" xmlns="http://www.w3.org/2000/svg">
<circle cx="188" cy="17" r="17" fill="#E9E6E6" fill-opacity="0.5"/>
<circle cx="188" cy="119" r="17" fill="#E9E6E6" fill-opacity="0.5"/>
<circle cx="188" cy="68" r="17" fill="#E9E6E6" fill-opacity="0.5"/>
<circle cx="188" cy="170" r="17" fill="#E9E6E6" fill-opacity="0.5"/>
<circle cx="-15" cy="17" r="17" fill="#E9E6E6" fill-opacity="0.5"/>
<circle cx="-15" cy="119" r="17" fill="#E9E6E6" fill-opacity="0.5"/>
<circle cx="-15" cy="68" r="17" fill="#E9E6E6" fill-opacity="0.5"/>
<circle cx="-15" cy="170" r="17" fill="#E9E6E6" fill-opacity="0.5"/>
<circle cx="239" cy="17" r="17" fill="#E9E6E6" fill-opacity="0.5"/>
<circle cx="239" cy="119" r="17" fill="#E9E6E6" fill-opacity="0.5"/>
<circle cx="239" cy="68" r="17" fill="#E9E6E6" fill-opacity="0.5"/>
<circle cx="239" cy="170" r="17" fill="#E9E6E6" fill-opacity="0.5"/>
<circle cx="36" cy="17" r="17" fill="#E9E6E6" fill-opacity="0.5"/>
<circle cx="36" cy="119" r="17" fill="#E9E6E6" fill-opacity="0.5"/>
<circle cx="36" cy="68" r="17" fill="#E9E6E6" fill-opacity="0.5"/>
<circle cx="36" cy="170" r="17" fill="#E9E6E6" fill-opacity="0.5"/>
<circle cx="290" cy="17" r="17" fill="#E9E6E6" fill-opacity="0.5"/>
<circle cx="290" cy="119" r="17" fill="#E9E6E6" fill-opacity="0.5"/>
<circle cx="290" cy="68" r="17" fill="#E9E6E6" fill-opacity="0.5"/>
<circle cx="290" cy="170" r="17" fill="#E9E6E6" fill-opacity="0.5"/>
<circle cx="87" cy="17" r="17" fill="#E9E6E6" fill-opacity="0.5"/>
<circle cx="87" cy="119" r="17" fill="#E9E6E6" fill-opacity="0.5"/>
<circle cx="87" cy="68" r="17" fill="#E9E6E6" fill-opacity="0.5"/>
<circle cx="87" cy="170" r="17" fill="#E9E6E6" fill-opacity="0.5"/>
<circle cx="341" cy="17" r="17" fill="#E9E6E6" fill-opacity="0.5"/>
<circle cx="341" cy="119" r="17" fill="#E9E6E6" fill-opacity="0.5"/>
<circle cx="341" cy="68" r="17" fill="#E9E6E6" fill-opacity="0.5"/>
<circle cx="341" cy="170" r="17" fill="#E9E6E6" fill-opacity="0.5"/>
<circle cx="138" cy="17" r="17" fill="#E9E6E6" fill-opacity="0.5"/>
<circle cx="138" cy="119" r="17" fill="#E9E6E6" fill-opacity="0.5"/>
<circle cx="138" cy="68" r="17" fill="#E9E6E6" fill-opacity="0.5"/>
<circle cx="138" cy="170" r="17" fill="#E9E6E6" fill-opacity="0.5"/>
<circle cx="392" cy="17" r="17" fill="#E9E6E6" fill-opacity="0.5"/>
<circle cx="392" cy="119" r="17" fill="#E9E6E6" fill-opacity="0.5"/>
<circle cx="392" cy="68" r="17" fill="#E9E6E6" fill-opacity="0.5"/>
<circle cx="392" cy="170" r="17" fill="#E9E6E6" fill-opacity="0.5"/>
</svg>
