<svg width="201" height="788" viewBox="0 0 201 788" fill="none" xmlns="http://www.w3.org/2000/svg">
<path fill-rule="evenodd" clip-rule="evenodd" d="M-222.356 6.12155C-139.158 -15.7807 -51.9843 24.7329 21.203 69.9493C98.8591 117.927 196.462 176.451 200.886 267.608C205.429 361.189 72.6346 402.429 41.6328 490.845C11.944 575.516 93.0896 688.775 30.6221 753.195C-29.5911 815.292 -137.224 778.447 -222.356 763.089C-294.458 750.082 -352.644 708.072 -416.691 672.501C-491.913 630.724 -611.918 621.507 -629.07 537.207C-646.77 450.217 -538.18 392.286 -488.703 318.573C-455.675 269.368 -426.134 222.692 -387.689 177.591C-334.89 115.653 -301.074 26.8442 -222.356 6.12155Z" fill="url(#paint0_linear)" fill-opacity="0.5"/>
<defs>
<linearGradient id="paint0_linear" x1="200.782" y1="374.516" x2="-494.032" y2="290.692" gradientUnits="userSpaceOnUse">
<stop offset="0.163896" stop-color="#FFA022"/>
<stop offset="0.878157" stop-color="#FFCB87"/>
</linearGradient>
</defs>
</svg>
