<svg width="435" height="187" viewBox="0 0 435 187" fill="none" xmlns="http://www.w3.org/2000/svg">
<circle cx="220" cy="17" r="17" fill="#E9E6E6"/>
<circle cx="220" cy="119" r="17" fill="#E9E6E6"/>
<circle cx="220" cy="68" r="17" fill="#E9E6E6"/>
<circle cx="220" cy="170" r="17" fill="#E9E6E6"/>
<circle cx="17" cy="17" r="17" fill="#E9E6E6"/>
<circle cx="17" cy="119" r="17" fill="#E9E6E6"/>
<circle cx="17" cy="68" r="17" fill="#E9E6E6"/>
<circle cx="17" cy="170" r="17" fill="#E9E6E6"/>
<circle cx="271" cy="17" r="17" fill="#E9E6E6"/>
<circle cx="271" cy="119" r="17" fill="#E9E6E6"/>
<circle cx="271" cy="68" r="17" fill="#E9E6E6"/>
<circle cx="271" cy="170" r="17" fill="#E9E6E6"/>
<circle cx="68" cy="17" r="17" fill="#E9E6E6"/>
<circle cx="68" cy="119" r="17" fill="#E9E6E6"/>
<circle cx="68" cy="68" r="17" fill="#E9E6E6"/>
<circle cx="68" cy="170" r="17" fill="#E9E6E6"/>
<circle cx="322" cy="17" r="17" fill="#E9E6E6"/>
<circle cx="322" cy="119" r="17" fill="#E9E6E6"/>
<circle cx="322" cy="68" r="17" fill="#E9E6E6"/>
<circle cx="322" cy="170" r="17" fill="#E9E6E6"/>
<circle cx="119" cy="17" r="17" fill="#E9E6E6"/>
<circle cx="119" cy="119" r="17" fill="#E9E6E6"/>
<circle cx="119" cy="68" r="17" fill="#E9E6E6"/>
<circle cx="119" cy="170" r="17" fill="#E9E6E6"/>
<circle cx="373" cy="17" r="17" fill="#E9E6E6"/>
<circle cx="373" cy="119" r="17" fill="#E9E6E6"/>
<circle cx="373" cy="68" r="17" fill="#E9E6E6"/>
<circle cx="373" cy="170" r="17" fill="#E9E6E6"/>
<circle cx="170" cy="17" r="17" fill="#E9E6E6"/>
<circle cx="170" cy="119" r="17" fill="#E9E6E6"/>
<circle cx="170" cy="68" r="17" fill="#E9E6E6"/>
<circle cx="170" cy="170" r="17" fill="#E9E6E6"/>
<circle cx="424" cy="17" r="17" fill="#E9E6E6"/>
<circle cx="424" cy="119" r="17" fill="#E9E6E6"/>
<circle cx="424" cy="68" r="17" fill="#E9E6E6"/>
<circle cx="424" cy="170" r="17" fill="#E9E6E6"/>
</svg>
